{"title":"Danny Collins 2015 1080p WEB-DL DD5.1 x264-RARBG","uid":12022172,"size":3893723650,"categoryP":"video","categoryS":"hd___movies","magnet":"?xt=urn:btih:00127290a42024422c36fbe89deb2acedc4b1b10&amp;dn=Danny+Collins+2015+1080p+WEB-DL+DD5.1+x264-RARBG&amp;tr=udp%3A%2F%2Ftracker.openbittorrent.com%3A80&amp;tr=udp%3A%2F%2Fopen.demonii.com%3A1337&amp;tr=udp%3A%2F%2Ftracker.coppersurfer.tk%3A6969&amp;tr=udp%3A%2F%2Fexodus.desync.com%3A6969","seeders":12,"leechers":2,"uploader":"OvoJeKraj","files":5,"time":1434460881,"description":"Screenshots: &lt;a href=&quot;\nhttp://extraimago.com/image/jAI&quot; rel=&quot;nofollow&quot; target=&quot;_NEW&quot;&gt;\nhttp://extraimago.com/image/jAI&lt;/a&gt; &lt;a href=&quot;\nhttp://extraimago.com/image/jAd&quot; rel=&quot;nofollow&quot; target=&quot;_NEW&quot;&gt;\nhttp://extraimago.com/image/jAd&lt;/a&gt; &lt;a href=&quot;\nhttp://extraimago.com/image/jAh&quot; rel=&quot;nofollow&quot; target=&quot;_NEW&quot;&gt;\nhttp://extraimago.com/image/jAh&lt;/a&gt; &lt;a href=&quot;\nhttp://extraimago.com/image/jAY&quot; rel=&quot;nofollow&quot; target=&quot;_NEW&quot;&gt;\nhttp://extraimago.com/image/jAY&lt;/a&gt; &lt;a href=&quot;\nhttp://extraimago.com/image/jAp&quot; rel=&quot;nofollow&quot; target=&quot;_NEW&quot;&gt;\nhttp://extraimago.com/image/jAp&lt;/a&gt; &lt;a href=&quot;\nhttp://extraimago.com/image/jAr&quot; rel=&quot;nofollow&quot; target=&quot;_NEW&quot;&gt;\nhttp://extraimago.com/image/jAr&lt;/a&gt;\n\nMediainfo :\n\nVideo\nID : 1\nFormat : AVC\nFormat/Info : Advanced Video Codec\nFormat profile : High@L4\nFormat settings, CABAC : Yes\nFormat settings, ReFrames : 5 frames\nCodec ID : V_MPEG4/ISO/AVC\nDuration : 1h 46mn\nBit rate : 4 394 Kbps\nWidth : 1 920 pixels\nHeight : 800 pixels\nDisplay aspect ratio : 2.40:1\nFrame rate mode : Constant\nFrame rate : 24.000 fps\nColor space : YUV\nChroma subsampling : 4:2:0\nBit depth : 8 bits\nScan type : Progressive\nBits/(Pixel*Frame) : 0.119\nStream size : 3.27 GiB (90%)\nTitle : Danny.Collins.2015.1080p.WEB-DL.DD5.1.H264-RARBG\nLanguage : English\nDefault : Yes\nForced : No\nColor range : Limited\nColor primaries : BT.709\nTransfer characteristics : BT.709\nMatrix coefficients : BT.709\n\nAudio\nID : 2\nFormat : AC-3\nFormat/Info : Audio Coding 3\nMode extension : CM (complete main)\nFormat settings, Endianness : Big\nCodec ID : A_AC3\nDuration : 1h 46mn\nBit rate mode : Constant\nBit rate : 384 Kbps\nChannel(s) : 6 channels\nChannel positions : Front: L C R, Side: L R, LFE\nSampling rate : 48.0 KHz\nBit depth : 16 bits\nCompression mode : Lossy\nStream size : 292 MiB (8%)\nTitle : Danny.Collins.2015.1080p.WEB-DL.DD5.1.H264-RARBG\nLanguage : English\nDefault : Yes\nForced : No\n\nText\nID : 3\nFormat : UTF-8\nCodec ID : S_TEXT/UTF8\nCodec ID/Info : UTF-8 Plain Text\nLanguage : English\nDefault : Yes\nForced : No","torrent":{"xt":"urn:btih:00127290a42024422c36fbe89deb2acedc4b1b10","amp;dn":"Danny+Collins+2015+1080p+WEB-DL+DD5.1+x264-RARBG","amp;tr":["udp%3A%2F%2Ftracker.openbittorrent.com%3A80","udp%3A%2F%2Fopen.demonii.com%3A1337","udp%3A%2F%2Ftracker.coppersurfer.tk%3A6969","udp%3A%2F%2Fexodus.desync.com%3A6969"],"infoHash":"00127290a42024422c36fbe89deb2acedc4b1b10","infoHashBuffer":{"type":"Buffer","data":[0,18,114,144,164,32,36,66,44,54,251,232,157,235,42,206,220,75,27,16]},"announce":[],"urlList":[]}}